<svg viewBox="0 0 1525 762" xmlns="http://www.w3.org/2000/svg" xmlns:xlink="http://www.w3.org/1999/xlink" width="1525.000000" height="762.000000" fill="none">
	<defs>
		<clipPath id="clipPath_0">
			<rect width="106.403328" height="68.860840" x="1305.000000" y="530.000000" fill="rgb(255,255,255)" />
		</clipPath>
	</defs>
	<rect id="一次回路图 1" width="1525.000000" height="762.000000" x="0.000000" y="0.000000" />
	<rect id="矩形 1" width="1525.000000" height="733.000000" x="43.000000" y="14.000000" fill="rgb(255,255,255)" />
	<circle id="椭圆 24" cx="1322.5" cy="720.5" r="4.5" fill="rgb(0,0,0)" />
	<path id="椭圆 20" d="M1007.5 721.5C1007.5 719.015 1009.51 717 1012 717C1014.49 717 1016.5 719.015 1016.5 721.5C1016.5 723.985 1014.49 726 1012 726C1009.51 726 1007.5 723.985 1007.5 721.5Z" fill="rgb(0,0,0)" fill-rule="evenodd" />
	<line id="直线 2" x1="77.8061523" x2="1447.19385" y1="721.178589" y2="721.178589" stroke="rgb(0,0,0)" stroke-width="3" />
	<path id="" d="M173.939 695.98L175.025 696.293C174.827 696.874 174.586 697.452 174.302 698.027C174.019 698.6 173.707 699.139 173.369 699.645C173.033 700.147 172.679 700.592 172.306 700.98C172.272 700.895 172.218 700.78 172.142 700.637C172.069 700.493 171.992 700.348 171.912 700.199C171.834 700.048 171.758 699.931 171.685 699.848C172.159 699.376 172.594 698.799 172.99 698.117C173.386 697.435 173.702 696.723 173.939 695.98ZM173.755 697.766L177.505 697.766L177.505 698.91L173.521 698.91L173.755 697.766ZM172.955 700.617L177.31 700.617L177.31 701.707L172.955 701.707L172.955 700.617ZM172.127 703.875L177.666 703.875L177.666 704.973L172.127 704.973L172.127 703.875ZM174.255 710.539L174.115 709.477L174.545 709.016L177.396 707.633C177.417 707.786 177.447 707.964 177.486 708.164C177.525 708.365 177.564 708.53 177.603 708.66C176.939 709.009 176.401 709.292 175.99 709.508C175.578 709.724 175.257 709.896 175.025 710.023C174.793 710.151 174.624 710.253 174.517 710.328C174.41 710.406 174.323 710.477 174.255 710.539ZM174.255 710.539C174.232 710.443 174.192 710.329 174.134 710.199C174.08 710.069 174.019 709.94 173.951 709.812C173.886 709.688 173.821 709.586 173.755 709.508C173.883 709.44 174.017 709.331 174.158 709.18C174.298 709.029 174.369 708.794 174.369 708.477L174.369 701L175.513 701L175.513 709.465C175.513 709.465 175.47 709.488 175.384 709.535C175.301 709.585 175.198 709.647 175.076 709.723C174.953 709.798 174.828 709.883 174.701 709.977C174.573 710.073 174.466 710.169 174.38 710.266C174.297 710.365 174.255 710.456 174.255 710.539ZM178.048 696.777L185.451 696.777L185.451 697.852L179.177 697.852L179.177 710.633L178.048 710.633L178.048 696.777ZM184.9 696.777L186.021 696.777L186.021 709.07C186.021 709.385 185.977 709.632 185.888 709.809C185.802 709.988 185.65 710.128 185.431 710.227C185.215 710.318 184.926 710.375 184.564 710.398C184.205 710.422 183.737 710.434 183.162 710.434C183.138 710.285 183.089 710.107 183.013 709.898C182.94 709.69 182.862 709.51 182.779 709.359C183.196 709.375 183.573 709.383 183.912 709.383C184.253 709.383 184.477 709.383 184.584 709.383C184.795 709.375 184.9 709.267 184.9 709.059L184.9 696.777ZM179.552 699.875L180.412 699.43C180.797 700.052 181.186 700.714 181.58 701.414C181.973 702.112 182.349 702.814 182.709 703.52C183.068 704.225 183.394 704.902 183.685 705.551C183.979 706.199 184.219 706.789 184.404 707.32L183.498 707.828C183.315 707.294 183.077 706.699 182.783 706.043C182.489 705.384 182.162 704.698 181.802 703.984C181.446 703.271 181.075 702.562 180.689 701.859C180.304 701.154 179.925 700.492 179.552 699.875ZM183.185 698.445L184.201 698.641C183.873 699.906 183.5 701.151 183.084 702.375C182.67 703.596 182.218 704.747 181.728 705.828C181.239 706.909 180.715 707.867 180.158 708.703C180.098 708.648 180.012 708.583 179.9 708.508C179.788 708.432 179.673 708.358 179.556 708.285C179.442 708.212 179.34 708.155 179.252 708.113C179.817 707.324 180.343 706.41 180.83 705.371C181.317 704.329 181.758 703.216 182.154 702.031C182.55 700.844 182.894 699.648 183.185 698.445ZM187.951 697.832L194.431 697.832L194.431 698.973L187.951 698.973L187.951 697.832ZM191.455 700.293L192.603 700.293L192.603 710.59L191.455 710.59L191.455 700.293ZM187.81 706.703C188.38 706.615 189.033 706.508 189.767 706.383C190.504 706.255 191.287 706.117 192.115 705.969C192.943 705.82 193.774 705.672 194.607 705.523L194.67 706.594C193.505 706.828 192.34 707.061 191.173 707.293C190.007 707.525 188.976 707.727 188.08 707.898L187.81 706.703ZM188.455 704.082C188.436 703.999 188.404 703.888 188.357 703.75C188.313 703.609 188.265 703.467 188.213 703.324C188.16 703.181 188.111 703.059 188.064 702.957C188.213 702.918 188.349 702.781 188.474 702.547C188.602 702.312 188.741 702.018 188.892 701.664C188.976 701.492 189.09 701.21 189.236 700.816C189.384 700.423 189.543 699.961 189.713 699.43C189.884 698.896 190.052 698.324 190.216 697.715C190.38 697.103 190.52 696.493 190.634 695.887L191.884 696.152C191.684 697.012 191.443 697.878 191.162 698.75C190.88 699.622 190.58 700.453 190.259 701.242C189.942 702.031 189.619 702.743 189.291 703.379L189.291 703.406C189.291 703.406 189.249 703.43 189.166 703.477C189.082 703.523 188.985 703.583 188.873 703.656C188.763 703.727 188.666 703.799 188.58 703.875C188.496 703.951 188.455 704.02 188.455 704.082ZM188.455 704.082L188.455 703.098L189.123 702.762L194.455 702.762L194.455 703.855L189.689 703.855C189.392 703.855 189.129 703.878 188.9 703.922C188.671 703.964 188.522 704.017 188.455 704.082ZM196.591 696.059L197.693 696.059L197.693 699.496C197.693 700.267 197.667 701.117 197.615 702.047C197.565 702.977 197.45 703.941 197.267 704.941C197.085 705.941 196.801 706.935 196.416 707.922C196.033 708.906 195.508 709.84 194.841 710.723C194.776 710.645 194.692 710.557 194.588 710.461C194.483 710.367 194.375 710.275 194.263 710.184C194.151 710.092 194.045 710.02 193.943 709.965C194.581 709.152 195.081 708.284 195.443 707.359C195.805 706.435 196.068 705.503 196.232 704.562C196.396 703.622 196.496 702.716 196.533 701.844C196.572 700.971 196.591 700.189 196.591 699.496L196.591 696.059ZM194.779 699.312L199.998 699.312L199.998 700.441L194.779 700.441L194.779 699.312ZM199.423 699.312L200.509 699.312L200.509 708.734C200.509 708.977 200.541 709.128 200.603 709.188C200.666 709.245 200.748 709.273 200.849 709.273L201.236 709.273C201.34 709.273 201.416 709.214 201.463 709.094C201.509 708.974 201.545 708.751 201.568 708.426C201.594 708.1 201.61 707.634 201.615 707.027C201.769 707.145 201.938 707.245 202.123 707.328C202.308 707.409 202.474 707.47 202.623 707.512C202.589 708.223 202.535 708.779 202.463 709.18C202.39 709.578 202.265 709.861 202.088 710.027C201.913 710.194 201.645 710.277 201.283 710.277L200.642 710.277C200.252 710.277 199.951 710.181 199.74 709.988C199.529 709.798 199.423 709.419 199.423 708.852L199.423 699.312Z" fill="rgb(102,102,102)" fill-rule="nonzero" />
	<line id="直线 1" x1="77.8061523" x2="1447.19385" y1="102.053589" y2="102.053589" stroke="rgb(0,0,0)" stroke-width="3" />
	<path id="" d="M146.449 78.7197C147.038 78.5634 147.745 78.3577 148.57 78.1025C149.396 77.8473 150.238 77.5816 151.098 77.3056L151.266 78.4189C150.484 78.6793 149.698 78.9384 148.906 79.1962C148.115 79.4514 147.397 79.6832 146.754 79.8915L146.449 78.7197ZM146.66 73.4423L151.281 73.4423L151.281 74.5634L146.66 74.5634L146.66 73.4423ZM148.559 70.2275L149.672 70.2275L149.672 83.5048C149.672 83.8225 149.632 84.0712 149.551 84.2509C149.473 84.4306 149.337 84.5686 149.145 84.665C148.962 84.7587 148.717 84.8212 148.41 84.8525C148.105 84.8837 147.717 84.8941 147.246 84.8837C147.233 84.7379 147.193 84.5556 147.125 84.3368C147.057 84.1181 146.984 83.928 146.906 83.7665C147.227 83.7769 147.516 83.7834 147.773 83.7861C148.031 83.7887 148.204 83.7861 148.293 83.7782C148.47 83.7782 148.559 83.6884 148.559 83.5087L148.559 70.2275ZM152.133 71.8993L160.82 71.8993L160.82 72.9462L152.133 72.9462L152.133 71.8993ZM151.574 75.6337L161.227 75.6337L161.227 76.6884L151.574 76.6884L151.574 75.6337ZM153.301 73.5009L154.211 73.1181C154.453 73.4306 154.686 73.7782 154.91 74.1611C155.137 74.5439 155.303 74.8707 155.41 75.1415L154.449 75.5947C154.348 75.3108 154.189 74.9709 153.973 74.5751C153.757 74.1793 153.533 73.8212 153.301 73.5009ZM158.305 73.1337L159.434 73.4579C159.184 73.9032 158.923 74.359 158.652 74.8251C158.382 75.2913 158.121 75.6858 157.871 76.0087L156.898 75.6962C157.065 75.467 157.234 75.2014 157.406 74.8993C157.581 74.5973 157.747 74.29 157.906 73.9775C158.068 73.6624 158.201 73.3811 158.305 73.1337ZM151.363 78.4384L161.406 78.4384L161.406 79.4775L151.363 79.4775L151.363 78.4384ZM158.328 79.1493L159.48 79.3486C159.264 80.1819 158.954 80.9124 158.551 81.54C158.147 82.165 157.63 82.6936 157 83.1259C156.372 83.5582 155.616 83.9176 154.73 84.204C153.845 84.4931 152.811 84.7249 151.629 84.8993C151.579 84.7353 151.508 84.5543 151.414 84.3564C151.32 84.1611 151.224 84.0009 151.125 83.8759C152.589 83.7197 153.806 83.4579 154.777 83.0907C155.749 82.7209 156.52 82.2144 157.09 81.5712C157.66 80.928 158.073 80.1207 158.328 79.1493ZM152.398 81.4853C152.721 81.0738 153.059 80.5999 153.41 80.0634C153.764 79.5243 154.1 78.967 154.418 78.3915C154.738 77.816 155.007 77.2704 155.223 76.7548L156.332 76.9736C156.105 77.5048 155.832 78.0582 155.512 78.6337C155.191 79.2092 154.863 79.7561 154.527 80.2743C154.191 80.79 153.879 81.2366 153.59 81.6142L152.398 81.4853ZM152.398 81.4853L153.121 80.6767C153.788 80.8642 154.484 81.0881 155.211 81.3486C155.94 81.6064 156.661 81.8889 157.375 82.1962C158.089 82.5009 158.754 82.8108 159.371 83.1259C159.988 83.4384 160.52 83.7483 160.965 84.0556L160.176 84.9736C159.759 84.6741 159.249 84.3642 158.645 84.0439C158.043 83.7236 157.389 83.4058 156.684 83.0907C155.98 82.773 155.26 82.4762 154.523 82.2001C153.789 81.9241 153.081 81.6858 152.398 81.4853ZM155.082 70.5243L156.188 70.3407C156.404 70.6402 156.611 70.9762 156.809 71.3486C157.009 71.7183 157.159 72.0387 157.258 72.3095L156.09 72.5556C155.999 72.2795 155.855 71.9501 155.66 71.5673C155.467 71.1845 155.275 70.8368 155.082 70.5243ZM172.168 70.2118L173.301 70.2118L173.301 81.3642L172.168 81.3642L172.168 70.2118ZM167.133 76.8173L175.754 73.1806L176.203 74.2079L167.586 77.8798L167.133 76.8173ZM168.859 71.7079L170.016 71.7079L170.016 82.4189C170.016 82.7079 170.047 82.9306 170.109 83.0868C170.172 83.2405 170.293 83.3459 170.473 83.4032C170.652 83.4605 170.921 83.4892 171.277 83.4892C171.382 83.4892 171.559 83.4892 171.809 83.4892C172.059 83.4892 172.345 83.4892 172.668 83.4892C172.993 83.4892 173.32 83.4892 173.648 83.4892C173.977 83.4892 174.273 83.4892 174.539 83.4892C174.805 83.4892 175.004 83.4892 175.137 83.4892C175.452 83.4892 175.688 83.4267 175.844 83.3017C176.003 83.1767 176.117 82.9501 176.188 82.622C176.258 82.2913 176.311 81.8212 176.348 81.2118C176.491 81.3108 176.665 81.4032 176.871 81.4892C177.077 81.5751 177.263 81.6337 177.43 81.665C177.37 82.3993 177.271 82.9775 177.133 83.3993C176.997 83.8212 176.777 84.122 176.473 84.3017C176.171 84.484 175.741 84.5751 175.184 84.5751C175.092 84.5751 174.914 84.5751 174.648 84.5751C174.383 84.5751 174.074 84.5751 173.723 84.5751C173.374 84.5751 173.023 84.5751 172.672 84.5751C172.323 84.5751 172.017 84.5751 171.754 84.5751C171.491 84.5751 171.319 84.5751 171.238 84.5751C170.632 84.5751 170.154 84.5139 169.805 84.3915C169.456 84.2691 169.211 84.0504 169.07 83.7353C168.93 83.4202 168.859 82.9749 168.859 82.3993L168.859 71.7079ZM175.543 73.3407L175.402 73.3407L175.68 73.1025L175.902 72.9267L176.746 73.247L176.695 73.4697C176.695 74.2197 176.693 74.9267 176.688 75.5907C176.682 76.2548 176.673 76.8525 176.66 77.3837C176.65 77.9124 176.634 78.3577 176.613 78.7197C176.592 79.0816 176.568 79.342 176.539 79.5009C176.495 79.8238 176.397 80.0673 176.246 80.2314C176.098 80.3928 175.905 80.5022 175.668 80.5595C175.457 80.6194 175.208 80.6545 174.922 80.665C174.635 80.6754 174.383 80.6806 174.164 80.6806C174.143 80.5165 174.108 80.3342 174.059 80.1337C174.009 79.9332 173.949 79.7652 173.879 79.6298C174.069 79.6402 174.273 79.6467 174.492 79.6493C174.711 79.6519 174.862 79.6532 174.945 79.6532C175.07 79.6532 175.173 79.6272 175.254 79.5751C175.335 79.5204 175.395 79.4019 175.434 79.2197C175.457 79.1181 175.475 78.9032 175.488 78.5751C175.504 78.247 175.514 77.8277 175.52 77.3173C175.527 76.8069 175.533 76.2157 175.535 75.5439C175.54 74.872 175.543 74.1376 175.543 73.3407ZM162.664 74.0673L167.75 74.0673L167.75 75.204L162.664 75.204L162.664 74.0673ZM164.727 70.4032L165.863 70.4032L165.863 80.7861L164.727 80.7861L164.727 70.4032ZM162.527 81.1923C162.954 81.0334 163.449 80.8407 164.012 80.6142C164.574 80.385 165.169 80.1389 165.797 79.8759C166.427 79.6103 167.057 79.3447 167.688 79.079L167.949 80.1532C167.095 80.5517 166.233 80.9475 165.363 81.3407C164.496 81.7314 163.71 82.0803 163.004 82.3876L162.527 81.1923ZM184.445 73.4111L185.547 73.5439C185.219 75.5439 184.747 77.3407 184.133 78.9345C183.521 80.5282 182.703 81.8577 181.68 82.9228C181.622 82.8629 181.536 82.7913 181.422 82.7079C181.307 82.6246 181.188 82.54 181.062 82.454C180.938 82.3681 180.832 82.3017 180.746 82.2548C181.426 81.6064 182.007 80.8316 182.488 79.9306C182.97 79.0269 183.37 78.0243 183.688 76.9228C184.008 75.8212 184.26 74.6506 184.445 73.4111ZM188.996 73.4501L190.086 73.579C189.773 75.6155 189.306 77.4358 188.684 79.04C188.064 80.6441 187.227 81.9788 186.172 83.0439C186.107 82.984 186.016 82.9111 185.898 82.8251C185.784 82.7392 185.667 82.6545 185.547 82.5712C185.427 82.4879 185.322 82.4241 185.23 82.3798C185.939 81.7314 186.539 80.9553 187.031 80.0517C187.523 79.148 187.93 78.1402 188.25 77.0282C188.57 75.9137 188.819 74.7209 188.996 73.4501ZM181.105 75.0868L181.844 74.415C182.24 74.8837 182.642 75.3824 183.051 75.9111C183.46 76.4397 183.855 76.9709 184.238 77.5048C184.621 78.0361 184.973 78.5465 185.293 79.0361C185.613 79.523 185.88 79.9618 186.094 80.3525L185.312 81.1376C185.102 80.7366 184.836 80.2848 184.516 79.7822C184.198 79.2795 183.848 78.7561 183.465 78.2118C183.085 77.665 182.693 77.1246 182.289 76.5907C181.888 76.0543 181.493 75.553 181.105 75.0868ZM185.73 75.0907L186.508 74.4736C186.927 74.9709 187.348 75.5022 187.77 76.0673C188.194 76.6298 188.596 77.2001 188.977 77.7782C189.359 78.3538 189.707 78.9111 190.02 79.4501C190.335 79.9866 190.591 80.4762 190.789 80.9189L189.949 81.622C189.751 81.1793 189.497 80.6845 189.188 80.1376C188.88 79.5881 188.536 79.0204 188.156 78.4345C187.776 77.8486 187.379 77.2691 186.965 76.6962C186.553 76.1233 186.142 75.5881 185.73 75.0907ZM179.414 71.1767L192.184 71.1767L192.184 72.3251L180.617 72.3251L180.617 84.8993L179.414 84.8993L179.414 71.1767ZM191.438 71.1767L192.641 71.1767L192.641 83.3368C192.641 83.7197 192.585 84.0139 192.473 84.2197C192.361 84.4254 192.173 84.5803 191.91 84.6845C191.65 84.7782 191.293 84.8368 190.84 84.8603C190.389 84.8863 189.798 84.8967 189.066 84.8915C189.048 84.7848 189.012 84.6584 188.957 84.5126C188.905 84.3694 188.849 84.2249 188.789 84.079C188.732 83.9332 188.669 83.8069 188.602 83.7001C188.958 83.7157 189.303 83.7249 189.637 83.7275C189.97 83.7327 190.259 83.734 190.504 83.7314C190.751 83.7288 190.924 83.7275 191.023 83.7275C191.174 83.7144 191.281 83.6819 191.344 83.6298C191.406 83.5751 191.438 83.4762 191.438 83.3329L191.438 71.1767Z" fill="rgb(102,102,102)" fill-rule="nonzero" />
	<line id="直线 3" x1="0" x2="619.125" y1="0" y2="0" stroke="rgb(0,0,0)" stroke-width="2" transform="matrix(0,1,-1,0,389.031,102.054)" />
	<line id="直线 4" x1="0" x2="619.125" y1="0" y2="0" stroke="rgb(0,0,0)" stroke-width="2" transform="matrix(0,1,-1,0,700.255,102.054)" />
	<circle id="椭圆 1" cx="1011.5" cy="102.5" r="4.5" fill="rgb(0,0,0)" />
	<line id="直线 47" x1="0" x2="35" y1="0" y2="0" stroke="rgb(0,0,0)" stroke-width="2" transform="matrix(0,1,-1,0,1322,686)" />
	<circle id="椭圆 17" cx="700.5" cy="101.5" r="4.5" fill="rgb(0,0,0)" />
	<g id="SV1">
		<!-- <path id="" d="M405.615 425.175C404.999 425.175 404.469 424.987 404.025 424.613C403.581 424.238 403.239 423.691 403 422.972C402.763 422.253 402.644 421.374 402.644 420.338C402.644 419.299 402.763 418.425 403 417.716C403.239 417.007 403.581 416.471 404.025 416.107C404.469 415.743 404.999 415.561 405.615 415.561C406.231 415.561 406.76 415.743 407.202 416.107C407.646 416.471 407.986 417.007 408.221 417.716C408.458 418.425 408.576 419.299 408.576 420.338C408.576 421.374 408.458 422.253 408.221 422.972C407.986 423.691 407.646 424.238 407.202 424.613C406.76 424.987 406.231 425.175 405.615 425.175ZM405.615 424.213C405.977 424.213 406.294 424.079 406.567 423.81C406.842 423.539 407.055 423.118 407.205 422.547C407.355 421.975 407.43 421.239 407.43 420.338C407.43 419.43 407.355 418.696 407.205 418.135C407.055 417.574 406.842 417.165 406.567 416.907C406.294 416.646 405.977 416.516 405.615 416.516C405.257 416.516 404.941 416.646 404.666 416.907C404.391 417.165 404.176 417.574 404.022 418.135C403.867 418.696 403.79 419.43 403.79 420.338C403.79 421.239 403.867 421.975 404.022 422.547C404.176 423.118 404.391 423.539 404.666 423.81C404.941 424.079 405.257 424.213 405.615 424.213ZM412.265 425L409.225 415.466L410.494 415.466L412.033 420.63C412.203 421.188 412.354 421.712 412.487 422.201C412.623 422.689 412.778 423.216 412.954 423.781L413.011 423.781C413.191 423.216 413.347 422.689 413.481 422.201C413.616 421.712 413.769 421.188 413.941 420.63L415.467 415.466L416.693 415.466L413.658 425L412.265 425Z" fill="rgb(153,153,153)" fill-rule="nonzero" /> -->
		<text id="SV1_value" x="402" y="412" fill="#00ff00" font-size="16" font-weight="bold" text-anchor="start" dominant-baseline="middle">0V</text>
		<path id="矩形 3" d="M371 335L404 335L404 396L371 396L371 335Z" fill="rgb(0,255,0)" fill-rule="evenodd" />
		<path id="矩形 3" d="M404 335L404 396L371 396L371 335L404 335Z" fill-rule="evenodd" stroke="rgb(0,0,0)" stroke-width="1.5" />
		<path id="SV1" d="M345.462 322.731C344.537 322.731 343.68 322.555 342.892 322.204C342.106 321.849 341.428 321.372 340.857 320.771L341.846 319.624C342.32 320.119 342.875 320.516 343.511 320.815C344.15 321.114 344.811 321.263 345.493 321.263C346.363 321.263 347.042 321.066 347.528 320.67C348.017 320.275 348.262 319.757 348.262 319.119C348.262 318.656 348.164 318.287 347.967 318.011C347.771 317.736 347.507 317.506 347.176 317.321C346.848 317.134 346.473 316.951 346.051 316.772L344.166 315.941C343.756 315.763 343.344 315.534 342.931 315.256C342.518 314.975 342.172 314.614 341.894 314.175C341.619 313.735 341.481 313.195 341.481 312.553C341.481 311.871 341.66 311.267 342.017 310.743C342.377 310.218 342.87 309.807 343.494 309.508C344.121 309.206 344.835 309.055 345.638 309.055C346.426 309.055 347.154 309.206 347.822 309.508C348.49 309.807 349.053 310.199 349.51 310.686L348.635 311.749C348.234 311.368 347.787 311.068 347.295 310.848C346.806 310.626 346.253 310.514 345.638 310.514C344.891 310.514 344.293 310.687 343.845 311.033C343.4 311.379 343.177 311.846 343.177 312.435C343.177 312.862 343.287 313.214 343.507 313.489C343.729 313.762 344.009 313.984 344.346 314.157C344.683 314.33 345.02 314.49 345.357 314.636L347.229 315.445C347.745 315.662 348.208 315.922 348.618 316.227C349.028 316.529 349.352 316.9 349.589 317.339C349.829 317.778 349.949 318.328 349.949 318.987C349.949 319.678 349.768 320.308 349.404 320.877C349.044 321.442 348.528 321.893 347.857 322.23C347.189 322.564 346.391 322.731 345.462 322.731ZM354.951 322.489L350.741 309.288L352.499 309.288L354.63 316.438C354.865 317.212 355.074 317.937 355.259 318.613C355.446 319.29 355.662 320.02 355.905 320.802L355.984 320.802C356.233 320.02 356.45 319.29 356.634 318.613C356.822 317.937 357.034 317.212 357.271 316.438L359.385 309.288L361.082 309.288L356.88 322.489L354.951 322.489ZM362.669 322.489L362.669 321.114L365.613 321.114L365.613 311.661L363.253 311.661L363.253 310.602C363.842 310.494 364.356 310.362 364.796 310.207C365.238 310.051 365.635 309.87 365.987 309.662L367.244 309.662L367.244 321.114L369.898 321.114L369.898 322.489L362.669 322.489Z" fill="rgb(0,0,0)" fill-rule="nonzero" />
		<line id="直线 37" x1="0" x2="69.3541641" y1="0" y2="0" stroke="rgb(0,0,0)" stroke-width="1" transform="matrix(-0.475818,0.879543,-0.879543,-0.475818,404,335)" />
	</g>
	<g id="SV2">
		<!-- <path id="" d="M720.615 416.175Q719.691 416.175 719.025 415.613Q718.358 415.051 718 413.972Q717.644 412.893 717.644 411.338Q717.644 409.779 718 408.716Q718.358 407.653 719.025 407.107Q719.691 406.561 720.615 406.561Q721.539 406.561 722.202 407.107Q722.868 407.653 723.221 408.716Q723.576 409.779 723.576 411.338Q723.576 412.893 723.221 413.972Q722.868 415.051 722.202 415.613Q721.539 416.175 720.615 416.175ZM720.615 415.213Q721.158 415.213 721.567 414.81Q721.98 414.404 722.205 413.547Q722.43 412.69 722.43 411.338Q722.43 409.976 722.205 409.135Q721.98 408.294 721.567 407.907Q721.158 407.516 720.615 407.516Q720.079 407.516 719.666 407.907Q719.253 408.294 719.022 409.135Q718.79 409.976 718.79 411.338Q718.79 412.69 719.022 413.547Q719.253 414.404 719.666 414.81Q720.079 415.213 720.615 415.213ZM727.265 416L724.225 406.466L725.494 406.466L727.033 411.63Q727.287 412.468 727.487 413.201Q727.69 413.934 727.954 414.781L728.011 414.781Q728.281 413.934 728.481 413.201Q728.684 412.468 728.941 411.63L730.467 406.466L731.693 406.466L728.658 416L727.265 416Z" fill="rgb(153,153,153)" fill-rule="nonzero" /> -->
		<text id="SV2_value" x="717" y="403" fill="#00ff00" font-size="16" font-weight="bold" text-anchor="start" dominant-baseline="middle">0V</text>
		<path id="矩形 3" d="M683 335L716 335L716 396L683 396L683 335Z" fill="rgb(0,255,0)" fill-rule="evenodd" />
		<path id="矩形 3" d="M716 335L716 396L683 396L683 335L716 335Z" fill-rule="evenodd" stroke="rgb(0,0,0)" stroke-width="1.5" />
		<path id="SV2" d="M657.462 322.731Q656.074 322.731 654.892 322.204Q653.714 321.672 652.857 320.771L653.846 319.624Q654.558 320.367 655.511 320.815Q656.469 321.263 657.493 321.263Q658.798 321.263 659.528 320.67Q660.262 320.077 660.262 319.119Q660.262 318.424 659.967 318.011Q659.673 317.598 659.176 317.321Q658.684 317.04 658.051 316.772L656.166 315.941Q655.551 315.673 654.931 315.256Q654.312 314.834 653.894 314.175Q653.481 313.516 653.481 312.553Q653.481 311.529 654.017 310.743Q654.558 309.956 655.494 309.508Q656.434 309.055 657.638 309.055Q658.82 309.055 659.822 309.508Q660.824 309.956 661.51 310.686L660.635 311.749Q660.033 311.178 659.295 310.848Q658.561 310.514 657.638 310.514Q656.518 310.514 655.845 311.033Q655.177 311.551 655.177 312.435Q655.177 313.076 655.507 313.489Q655.841 313.898 656.346 314.157Q656.852 314.417 657.357 314.636L659.229 315.445Q660.002 315.77 660.618 316.227Q661.233 316.68 661.589 317.339Q661.949 317.998 661.949 318.987Q661.949 320.024 661.404 320.877Q660.864 321.725 659.857 322.23Q658.855 322.731 657.462 322.731ZM666.951 322.489L662.741 309.288L664.499 309.288L666.63 316.438Q666.982 317.598 667.259 318.613Q667.54 319.629 667.905 320.802L667.984 320.802Q668.357 319.629 668.634 318.613Q668.916 317.598 669.271 316.438L671.385 309.288L673.082 309.288L668.88 322.489L666.951 322.489ZM673.878 322.489L673.878 321.523Q675.816 319.593 677.161 318.126Q678.51 316.658 679.213 315.48Q679.916 314.302 679.916 313.252Q679.916 312.514 679.652 311.951Q679.393 311.389 678.852 311.068Q678.312 310.747 677.49 310.747Q676.682 310.747 675.992 311.2Q675.302 311.648 674.748 312.285L673.794 311.358Q674.594 310.47 675.513 309.947Q676.431 309.42 677.688 309.42Q678.874 309.42 679.731 309.89Q680.593 310.356 681.063 311.204Q681.533 312.048 681.533 313.182Q681.533 314.386 680.852 315.625Q680.171 316.864 678.984 318.231Q677.798 319.593 676.273 321.197Q676.791 321.149 677.367 321.114Q677.943 321.074 678.439 321.074L682.166 321.074L682.166 322.489L673.878 322.489Z" fill="rgb(0,0,0)" fill-rule="nonzero" />
		<path id="直线 37" d="M0 0L69.3542 0" stroke="rgb(0,0,0)" stroke-width="1" transform="matrix(-0.475818,0.879543,-0.879543,-0.475818,716,335)" />
	</g>
	<g id="SA2" customFrame="url(#clipPath_0)">
		<rect id="SA2" width="106.403328" height="68.860840" x="1305.000000" y="530.000000" />
		<rect id="矩形 9" width="33.000000" height="61.000000" x="1305.000244" y="537.860718" fill="rgb(0,255,0)" />
		<rect id="矩形 9" width="33.000000" height="61.000000" x="1305.000244" y="537.860718" stroke="rgb(0,0,0)" stroke-width="1.5" />
		<path id="" d="M1367.07 560.62C1366.14 560.62 1365.29 560.445 1364.5 560.093C1363.71 559.738 1363.04 559.261 1362.46 558.66L1363.45 557.513C1363.93 558.008 1364.48 558.405 1365.12 558.704C1365.76 559.003 1366.42 559.153 1367.1 559.153C1367.97 559.153 1368.65 558.955 1369.14 558.559C1369.62 558.164 1369.87 557.647 1369.87 557.008C1369.87 556.545 1369.77 556.176 1369.57 555.901C1369.38 555.625 1369.11 555.395 1368.78 555.211C1368.46 555.023 1368.08 554.84 1367.66 554.661L1365.77 553.831C1365.36 553.652 1364.95 553.424 1364.54 553.145C1364.13 552.864 1363.78 552.504 1363.5 552.064C1363.23 551.625 1363.09 551.084 1363.09 550.443C1363.09 549.76 1363.27 549.156 1363.62 548.632C1363.98 548.108 1364.48 547.696 1365.1 547.397C1365.73 547.095 1366.44 546.945 1367.25 546.945C1368.03 546.945 1368.76 547.095 1369.43 547.397C1370.1 547.696 1370.66 548.089 1371.12 548.575L1370.24 549.638C1369.84 549.258 1369.39 548.957 1368.9 548.737C1368.41 548.515 1367.86 548.404 1367.25 548.404C1366.5 548.404 1365.9 548.576 1365.45 548.922C1365.01 549.268 1364.78 549.735 1364.78 550.324C1364.78 550.752 1364.89 551.103 1365.11 551.379C1365.34 551.651 1365.62 551.874 1365.95 552.047C1366.29 552.219 1366.63 552.379 1366.96 552.526L1368.84 553.334C1369.35 553.551 1369.81 553.812 1370.23 554.116C1370.64 554.418 1370.96 554.789 1371.2 555.228C1371.44 555.668 1371.56 556.217 1371.56 556.876C1371.56 557.568 1371.38 558.197 1371.01 558.766C1370.65 559.331 1370.14 559.782 1369.46 560.119C1368.8 560.453 1368 560.62 1367.07 560.62ZM1372.4 560.379L1376.87 547.177L1378.73 547.177L1383.21 560.379L1381.45 560.379L1379.14 552.991C1378.9 552.247 1378.67 551.51 1378.46 550.781C1378.24 550.049 1378.03 549.3 1377.81 548.535L1377.74 548.535C1377.53 549.303 1377.32 550.051 1377.1 550.781C1376.88 551.51 1376.65 552.247 1376.42 552.991L1374.08 560.379L1372.4 560.379ZM1374.73 556.344L1374.73 555.026L1380.82 555.026L1380.82 556.344L1374.73 556.344ZM1384.08 560.379L1384.08 559.412C1385.37 558.126 1386.47 556.993 1387.36 556.015C1388.26 555.036 1388.95 554.154 1389.41 553.369C1389.88 552.584 1390.12 551.841 1390.12 551.141C1390.12 550.649 1390.03 550.216 1389.85 549.841C1389.68 549.466 1389.41 549.171 1389.05 548.957C1388.69 548.743 1388.24 548.636 1387.69 548.636C1387.15 548.636 1386.65 548.787 1386.19 549.089C1385.73 549.388 1385.32 549.75 1384.95 550.174L1384 549.247C1384.53 548.655 1385.1 548.185 1385.71 547.837C1386.33 547.485 1387.05 547.309 1387.89 547.309C1388.68 547.309 1389.36 547.466 1389.93 547.779C1390.51 548.09 1390.95 548.528 1391.26 549.093C1391.58 549.656 1391.73 550.315 1391.73 551.071C1391.73 551.874 1391.51 552.688 1391.05 553.514C1390.6 554.341 1389.98 555.209 1389.19 556.12C1388.39 557.029 1387.49 558.017 1386.47 559.087C1386.82 559.054 1387.18 559.027 1387.57 559.003C1387.95 558.977 1388.31 558.964 1388.64 558.964L1392.37 558.964L1392.37 560.379L1384.08 560.379Z" fill="rgb(0,0,0)" fill-rule="nonzero" />
		<!-- <path id="" d="M1365.61 587.175C1365 587.175 1364.47 586.987 1364.02 586.613C1363.58 586.238 1363.24 585.691 1363 584.972C1362.76 584.253 1362.64 583.374 1362.64 582.338C1362.64 581.299 1362.76 580.425 1363 579.716C1363.24 579.007 1363.58 578.471 1364.02 578.107C1364.47 577.743 1365 577.561 1365.61 577.561C1366.23 577.561 1366.76 577.743 1367.2 578.107C1367.65 578.471 1367.99 579.007 1368.22 579.716C1368.46 580.425 1368.58 581.299 1368.58 582.338C1368.58 583.374 1368.46 584.253 1368.22 584.972C1367.99 585.691 1367.65 586.238 1367.2 586.613C1366.76 586.987 1366.23 587.175 1365.61 587.175ZM1365.61 586.213C1365.98 586.213 1366.29 586.079 1366.57 585.81C1366.84 585.539 1367.05 585.118 1367.21 584.547C1367.36 583.975 1367.43 583.239 1367.43 582.338C1367.43 581.43 1367.36 580.696 1367.21 580.135C1367.05 579.574 1366.84 579.165 1366.57 578.907C1366.29 578.646 1365.98 578.516 1365.61 578.516C1365.26 578.516 1364.94 578.646 1364.67 578.907C1364.39 579.165 1364.18 579.574 1364.02 580.135C1363.87 580.696 1363.79 581.43 1363.79 582.338C1363.79 583.239 1363.87 583.975 1364.02 584.547C1364.18 585.118 1364.39 585.539 1364.67 585.81C1364.94 586.079 1365.26 586.213 1365.61 586.213ZM1369.26 587L1372.49 577.466L1373.83 577.466L1377.07 587L1375.8 587L1374.13 581.665C1373.95 581.127 1373.79 580.595 1373.64 580.068C1373.48 579.539 1373.33 578.999 1373.17 578.447L1373.12 578.447C1372.97 579.001 1372.81 579.542 1372.66 580.068C1372.5 580.595 1372.33 581.127 1372.16 581.665L1370.48 587L1369.26 587ZM1370.94 584.086L1370.94 583.134L1375.34 583.134L1375.34 584.086L1370.94 584.086Z" fill="rgb(153,153,153)" fill-rule="nonzero" /> -->
		<text id="SA2_value" x="1362" y="585" fill="#00ff00" font-size="16" font-weight="bold" text-anchor="start" dominant-baseline="middle">0A</text>
		<line id="直线 37" x1="0" x2="69.3543854" y1="0" y2="0" stroke="rgb(0,0,0)" stroke-width="1" transform="matrix(-0.475821,0.879542,-0.879542,-0.475821,1338,537.861)" />
		<line id="直线 49" x1="0" x2="47" y1="0" y2="0" stroke="rgb(0,0,0)" stroke-width="2" transform="matrix(0,1,-1,0,1321,599)" />
	</g>
	<rect id="矩形 8" width="118.265259" height="280.307129" x="1263.571411" y="200.025024" fill="rgb(179,217,255)" />
	<line id="直线 19" x1="0" x2="123.519859" y1="0" y2="0" stroke="rgb(0,0,0)" stroke-width="2" transform="matrix(0.00570039,0.999984,-0.999984,0.00570039,1323,101)" />
	<line id="直线 21" x1="0" x2="62.6983528" y1="0" y2="0" stroke="rgb(0,0,0)" stroke-width="2" transform="matrix(-0.496386,-0.868102,0.868102,-0.496386,1291.58,310.243)" />
	<line id="直线 22" x1="0" x2="46.6835938" y1="0" y2="0" stroke="rgb(0,0,0)" stroke-width="2" transform="matrix(-1,0,0,-1,1260.46,255.814)" />
	<line id="直线 23" x1="0" x2="59.3007317" y1="0" y2="0" stroke="rgb(0,0,0)" stroke-width="2" transform="matrix(0.999918,0.0127678,-0.0127678,0.999918,1322.7,309.243)" />
	<path id="矢量 1" d="M1266 309L1322 309L1294 344L1266 309Z" fill="rgb(255,235,59)" fill-rule="nonzero" />
	<path id="矢量 1" d="M1322 309L1294 344L1266 309L1322 309Z" fill-rule="nonzero" stroke="rgb(0,0,0)" stroke-width="2" />
	<line id="直线 24" x1="0" x2="58.7046814" y1="0" y2="0" stroke="rgb(0,0,0)" stroke-width="2" transform="matrix(0.99999,0.00443743,-0.00443743,0.99999,1264,345)" />
	<line id="直线 25" x1="0" x2="62.6983032" y1="0" y2="0" stroke="rgb(0,0,0)" stroke-width="2" transform="matrix(0.496384,0.868103,-0.868103,0.496384,1355,344)" />
	<path id="直线 26" d="M1386.32 397.689L1433 397.689" stroke="rgb(0,0,0)" stroke-width="2" />
	<path id="矢量 2" d="M1322 345L1380 345L1351 310L1322 345Z" fill="rgb(255,235,59)" fill-rule="nonzero" />
	<path id="矢量 2" d="M1380 345L1351 310L1322 345L1380 345Z" fill-rule="nonzero" stroke="rgb(0,0,0)" stroke-width="2" />
	<line id="直线 38" x1="0" x2="85.0058823" y1="0" y2="0" stroke="rgb(0,0,0)" stroke-width="2" transform="matrix(0.0117641,-0.999931,0.999931,0.0117641,1293,430)" />
	<line id="直线 39" x1="0" x2="85.0058823" y1="0" y2="0" stroke="rgb(0,0,0)" stroke-width="2" transform="matrix(0.0117642,-0.999931,0.999931,0.0117642,1351,430)" />
	<line id="直线 38" x1="0" x2="85.0058823" y1="0" y2="0" stroke="rgb(0,0,0)" stroke-width="2" transform="matrix(0.0117639,-0.999931,0.999931,0.0117639,1294,310)" />
	<line id="直线 39" x1="0" x2="85.0058823" y1="0" y2="0" stroke="rgb(0,0,0)" stroke-width="2" transform="matrix(0.0117642,-0.999931,0.999931,0.0117642,1351,310)" />
	<line id="直线 40" x1="1294" x2="1353" y1="225" y2="225" stroke="rgb(0,0,0)" stroke-width="2" />
	<line id="直线 44" x1="1293" x2="1351" y1="429" y2="429" stroke="rgb(0,0,0)" stroke-width="2" />
	<line id="直线 45" x1="0" x2="109" y1="0" y2="0" stroke="rgb(0,0,0)" stroke-width="2" transform="matrix(0,1,-1,0,1322,429)" />
	<rect id="矩形 7" width="140.051025" height="299.357147" x="1252.678589" y="190.500015" stroke="rgb(255,102,102)" stroke-dasharray="5 5 " stroke-width="2" />
	<g id="L1">
		<path id="矢量 5" d="M1321 645C1321.99 645.199 1323.22 645.482 1324 645.833C1324.91 646.244 1325.62 646.636 1326.25 647.205C1326.98 647.869 1327.46 648.65 1327.75 649.477C1328.05 650.348 1328.15 651.27 1328.13 652.165C1328.1 653.058 1327.92 653.952 1327.55 654.799C1327.21 655.593 1326.7 656.346 1326 657.014C1324.82 658.15 1323.05 658.545 1321 659" stroke="rgb(0,0,0)" stroke-width="2" />
		<path id="矢量 4" d="M1321 659C1321.99 659.199 1323.22 659.482 1324 659.833C1324.91 660.244 1325.62 660.636 1326.25 661.205C1326.98 661.869 1327.46 662.65 1327.75 663.477C1328.05 664.348 1328.15 665.27 1328.13 666.165C1328.1 667.058 1327.92 667.952 1327.55 668.799C1327.21 669.593 1326.7 670.346 1326 671.014C1324.82 672.15 1323.05 672.545 1321 673" stroke="rgb(0,0,0)" stroke-width="2" />
		<path id="矢量 3" d="M1321 673C1321.99 673.199 1323.22 673.482 1324 673.833C1324.91 674.244 1325.62 674.636 1326.25 675.205C1326.98 675.869 1327.46 676.65 1327.75 677.477C1328.05 678.348 1328.15 679.27 1328.13 680.165C1328.1 681.058 1327.92 681.952 1327.55 682.799C1327.21 683.593 1326.7 684.346 1326 685.014C1324.82 686.15 1323.05 686.545 1321 687" stroke="rgb(0,0,0)" stroke-width="2" />
		<path id="" d="M1343.41 668L1343.41 657.732L1344.7 657.732L1344.7 666.899L1349.19 666.899L1349.19 668L1343.41 668ZM1350.84 668L1350.84 666.93L1353.13 666.93L1353.13 659.578L1351.29 659.578L1351.29 658.754Q1351.98 658.628 1352.49 658.447Q1353.01 658.266 1353.42 658.023L1354.4 658.023L1354.4 666.93L1356.46 666.93L1356.46 668L1350.84 668Z" fill="rgb(0,0,0)" fill-rule="nonzero" />
	</g>
	<g id="SA1">
		<rect id="矩形 2" width="53.000000" height="33.000000" x="825.000000" y="86.000000" fill="rgb(0,255,0)" />
		<rect id="矩形 2" width="53.000000" height="33.000000" x="825.000000" y="86.000000" stroke="rgb(0,0,0)" stroke-width="1.5" />
		<path id="" d="M840.462 145.242Q839.074 145.242 837.892 144.714Q836.714 144.183 835.857 143.282L836.846 142.135Q837.558 142.877 838.511 143.326Q839.469 143.774 840.493 143.774Q841.798 143.774 842.528 143.181Q843.262 142.587 843.262 141.629Q843.262 140.935 842.967 140.522Q842.673 140.109 842.176 139.832Q841.684 139.551 841.051 139.283L839.166 138.452Q838.551 138.184 837.931 137.767Q837.312 137.345 836.894 136.686Q836.481 136.026 836.481 135.064Q836.481 134.04 837.017 133.253Q837.558 132.467 838.494 132.019Q839.434 131.566 840.638 131.566Q841.82 131.566 842.822 132.019Q843.824 132.467 844.51 133.196L843.635 134.26Q843.033 133.688 842.295 133.359Q841.561 133.025 840.638 133.025Q839.518 133.025 838.845 133.543Q838.177 134.062 838.177 134.945Q838.177 135.587 838.507 136Q838.841 136.409 839.346 136.668Q839.852 136.927 840.357 137.147L842.229 137.956Q843.002 138.281 843.618 138.738Q844.233 139.19 844.589 139.85Q844.949 140.509 844.949 141.498Q844.949 142.535 844.404 143.387Q843.864 144.235 842.857 144.741Q841.855 145.242 840.462 145.242ZM845.794 145L850.259 131.799L852.122 131.799L856.6 145L854.842 145L852.531 137.613Q852.17 136.497 851.85 135.402Q851.529 134.304 851.204 133.157L851.133 133.157Q850.821 134.308 850.492 135.402Q850.162 136.497 849.811 137.613L847.477 145L845.794 145ZM848.123 140.966L848.123 139.647L854.209 139.647L854.209 140.966L848.123 140.966ZM858.263 145L858.263 143.625L861.207 143.625L861.207 134.172L858.847 134.172L858.847 133.113Q859.731 132.95 860.39 132.717Q861.053 132.484 861.581 132.172L862.838 132.172L862.838 143.625L865.492 143.625L865.492 145L858.263 145Z" fill="rgb(0,0,0)" fill-rule="nonzero" />
		<line id="直线 48" x1="0" x2="62.4339638" y1="0" y2="0" stroke="rgb(0,0,0)" stroke-width="1" transform="matrix(-0.848897,0.528558,-0.528558,-0.848897,878,86)" />
		<text id="SA1_value" x="843" y="159" fill="#00ff00" font-size="16" font-weight="bold" text-anchor="start" dominant-baseline="middle">0A</text>
		<!-- <path id="" d="M846.615 171.175Q845.691 171.175 845.025 170.613Q844.358 170.051 844 168.972Q843.644 167.893 843.644 166.338Q843.644 164.779 844 163.716Q844.358 162.653 845.025 162.107Q845.691 161.561 846.615 161.561Q847.539 161.561 848.202 162.107Q848.868 162.653 849.221 163.716Q849.576 164.779 849.576 166.338Q849.576 167.893 849.221 168.972Q848.868 170.051 848.202 170.613Q847.539 171.175 846.615 171.175ZM846.615 170.213Q847.158 170.213 847.567 169.81Q847.98 169.404 848.205 168.547Q848.43 167.69 848.43 166.338Q848.43 164.976 848.205 164.135Q847.98 163.294 847.567 162.907Q847.158 162.516 846.615 162.516Q846.079 162.516 845.666 162.907Q845.253 163.294 845.022 164.135Q844.79 164.976 844.79 166.338Q844.79 167.69 845.022 168.547Q845.253 169.404 845.666 169.81Q846.079 170.213 846.615 170.213ZM850.263 171L853.487 161.466L854.833 161.466L858.067 171L856.798 171L855.128 165.665Q854.868 164.859 854.636 164.068Q854.404 163.275 854.17 162.447L854.119 162.447Q853.893 163.278 853.655 164.068Q853.417 164.859 853.164 165.665L851.478 171L850.263 171ZM851.945 168.086L851.945 167.134L856.341 167.134L856.341 168.086L851.945 168.086Z" fill="rgb(153,153,153)" fill-rule="nonzero" /> -->
	</g>
	<g id="KM1">
		<circle id="椭圆 19" cx="1011.5" cy="326.5" r="4.5" fill="rgb(0,0,0)" />
		<line id="直线 32" x1="0" x2="224.947357" y1="0" y2="0" stroke="rgb(0,0,0)" stroke-width="2" transform="matrix(0.00212575,-0.999998,0.999998,0.00212575,1011,327)" />
		<line id="直线 43" x1="0" x2="204.002457" y1="0" y2="0" stroke="rgb(0,0,0)" stroke-width="2" transform="matrix(0.00490385,0.999988,-0.999988,0.00490385,1011,517)" />
		<circle id="椭圆 18" cx="1011.5" cy="516.5" r="4.5" fill="rgb(0,0,0)" />
		<rect id="矩形 5" width="49.000000" height="89.000000" x="941.000000" y="381.000000" rx="3.000000" fill="rgb(0,255,0)" />
		<rect id="矩形 5" width="49.000000" height="89.000000" x="941.000000" y="381.000000" rx="3.000000" stroke="rgb(0,0,0)" stroke-width="2" />
		<rect id="矩形 6" width="46.666687" height="89.193550" x="1035.333252" y="380.612915" rx="3.000000" fill="rgb(0,255,0)" />
		<rect id="矩形 6" width="46.666687" height="89.193550" x="1035.333252" y="380.612915" rx="3.000000" stroke="rgb(0,0,0)" stroke-width="2" />
		<line id="KM1_R_diag" x1="0" x2="50.3289185" y1="0" y2="0" stroke="rgb(0,0,0)" stroke-width="2" transform="matrix(-0.357647,-0.933857,0.933857,-0.357647,1059,447)" />
		<line id="直线 34" x1="0" x2="94.0000229" y1="0" y2="0" stroke="rgb(0,0,0)" stroke-width="2" transform="matrix(1,-0.000759427,0.000759427,1,965,517.071)" />
		<line id="直线 33" x1="0" x2="63" y1="0" y2="0" stroke="rgb(0,0,0)" stroke-width="2" transform="matrix(0,1,-1,0,966,454.071)" />
		<path id="直线 31" d="M965 327L1059 327" stroke="rgb(0,0,0)" stroke-width="2" />
		<circle id="椭圆 21" cx="966" cy="451" r="4" fill="rgb(0,255,0)" />
		<circle id="椭圆 21" cx="966" cy="451" r="3.5" stroke="rgb(0,0,0)" stroke-width="1" />
		<circle id="椭圆 22" cx="1059" cy="450" r="4" fill="rgb(0,255,0)" />
		<circle id="椭圆 22" cx="1059" cy="450" r="3.5" stroke="rgb(0,0,0)" stroke-width="1" />
		<circle id="椭圆 23" cx="1059" cy="401" r="4" fill="rgb(0,255,0)" />
		<circle id="椭圆 23" cx="1059" cy="401" r="3.5" stroke="rgb(0,0,0)" stroke-width="1" />
		<line id="KM1_R_vert" x1="0" x2="42.9993896" y1="0" y2="0" stroke="rgb(255,0,0)" stroke-opacity="0" stroke-width="2" transform="matrix(0,-1,1,0,1059,446.999)" />
		<line id="直线 42" x1="0" x2="71" y1="0" y2="0" stroke="rgb(0,0,0)" stroke-width="2" transform="matrix(0,1,-1,0,1059,326)" />
		<line id="直线 41" x1="0" x2="65.0001221" y1="0" y2="0" stroke="rgb(0,0,0)" stroke-width="2" transform="matrix(0,1,-1,0,1059,453)" />
		<line id="直线 41" x1="0" x2="71" y1="0" y2="0" stroke="rgb(0,0,0)" stroke-width="2" transform="matrix(0,1,-1,0,966,327)" />
		<circle id="椭圆 21" cx="966" cy="402" r="4" fill="rgb(0,255,0)" />
		<circle id="椭圆 21" cx="966" cy="402" r="3.5" stroke="rgb(0,0,0)" stroke-width="1" />
		<line id="KM1_L_vert" x1="0" x2="43.0001221" y1="0" y2="0" stroke="rgb(255,0,0)" stroke-opacity="0" stroke-width="2" transform="matrix(0,-1,1,0,966,448)" />
		<path id="" d="M955.811 306.129L955.811 292.928L957.476 292.928L957.476 299.568L957.516 299.568L963.026 292.928L964.92 292.928L960.781 297.946L965.558 306.129L963.703 306.129L959.744 299.256L957.476 301.95L957.476 306.129L955.811 306.129ZM967.439 306.129L967.439 292.928L969.442 292.928L971.974 299.999Q972.215 300.662 972.448 301.361Q972.686 302.055 972.919 302.745L972.998 302.745Q973.239 302.055 973.463 301.361Q973.688 300.662 973.912 299.999L976.425 292.928L978.434 292.928L978.434 306.129L976.882 306.129L976.882 298.825Q976.882 298.25 976.918 297.568Q976.953 296.887 977.001 296.197Q977.049 295.503 977.098 294.932L977.019 294.932L975.968 297.938L973.477 304.797L972.36 304.797L969.851 297.938L968.801 294.932L968.731 294.932Q968.788 295.503 968.832 296.197Q968.88 296.887 968.911 297.568Q968.946 298.25 968.946 298.825L968.946 306.129L967.439 306.129ZM981.835 306.129L981.835 304.754L984.779 304.754L984.779 295.301L982.419 295.301L982.419 294.242Q983.303 294.079 983.962 293.846Q984.625 293.613 985.153 293.301L986.41 293.301L986.41 304.754L989.064 304.754L989.064 306.129L981.835 306.129Z" fill="rgb(0,0,0)" fill-rule="nonzero" />
		<line id="KM1_L_diag" x1="0" x2="50.3289185" y1="0" y2="0" stroke="rgb(0,0,0)" stroke-width="2" transform="matrix(-0.357647,-0.933857,0.933857,-0.357647,966,448)" />
	</g>
</svg>
